<svg xmlns="http://www.w3.org/2000/svg" xmlns:xlink="http://www.w3.org/1999/xlink" width="226" height="193" viewBox="0 0 226 193"><defs><path id="a2gza" d="M860.62 354h12.43v-16.26h13.57V354h12.47v-40.2h-12.47v14.07h-13.57V313.8h-12.43zm46.7 0h33.9v-9.1h-21.45v-7.93h19.33v-8.2h-19.33v-6.39h20.84v-8.58h-33.29zm40.58 0h31.81v-9.9h-19.39v-30.3H947.9zm44.73-16.84V354h12.45v-16.84l15.62-23.36h-13.72l-8.11 13.56-8.1-13.56h-13.8zm41.94-4.11L1020.7 354h13.88l7.94-12.91 7.94 12.91h13.95l-13.69-20.73 12.51-19.47h-13.54l-6.93 12.37-7.11-12.37h-13.68zm-21.74-92.25c2.67.53 8.64 0 8.64 0l6.48-6.48s3.84 2.06 8.34 2.15c-4.09-.09 11.1-2.15 11.1-2.15l30.24-34.57s3.09-3.1 0-6.48c-2.96-3.24-6.48 2.16-6.48 2.16l-25.92 28.08 2.16-32.4s.51-4.45-4.32-4.32c-2.13.05-4.32 6.48-4.32 6.48l-4.32 25.92s-1.14 3.89-4.32 6.48c-7.02 5.75-19.44 12.97-19.44 12.97s-.57 1.61 2.16 2.16zm23.76-4.32zm12.63 2.17c-.29 2.6-.83 5.92-1.83 8.63-2.14 5.8-8.49 9.53-15.12 15.12-11.5 9.71-34.36 20.43-45.36 25.93-4.72 2.36-6.57 2.44-7.13 2.45-.54 0 0 1.03 0 1.03s21.15-3.99 41.56-14.5c13.98-7.2 28.21-19.23 28.21-19.23s1.8 1.15 4.32 2.16c2.85 1.14 8.64 0 8.64 0s.48-6.51 0-10.8c-.6-5.32-2.16-8.64-2.16-8.64s4.19 2.16 6.48 2.16c2 0 2.16-2.16 2.16-2.16s2.16-.78 2.16-2.16c0-1.8-2.16-4.32-2.16-4.32s-3.45-2.16-8.64-2.16c-4.47 0-8.64 2.16-8.64 2.16s-2.2 1.83-2.49 4.33zm-77.43 51.84s-53.38-.5-77.75-2.16c-6.12-.42-17.28-4.32-17.28-4.32l-10.8-8.65s-2.86-.97-4.32 0c-1.76 1.17-2.16 4.33-2.16 4.33s-2.79-1.03-4.32 0c-1.7 1.13-2.16 4.32-2.16 4.32s2.78 3.84 6.48 6.48c3.86 2.76 8.64 4.32 8.64 4.32h101.51s1.88-1.54 2.35-2.48c.6-1.19-.19-1.84-.19-1.84zm-112.31-60.5c-2.98 20.54 8.88 38.28 6.6 34.06.75 1.4 1.22 2.29.95 1.86 2.8 4.46 5.4 7.3 5.4 7.3s3.13 1.2 4.33 0c.92-.92 0-4.33 0-4.33s-7.2-5.28-10.8-17.28c-2.77-9.23-2.16-25.93-2.16-25.93s-3.81.82-4.32 4.33zm7.55 35.91zm18.37-29.42a14.3 14.3 0 0 1 0 6.48s-2.62 1.6-4.32 2.16c-.19.06-.4.1-.61.14-1.56.25-4.09-.6-4.09-.6s-2.56-5.56-3.94-6.02c-1.8-.6-2.16 2.16-2.16 2.16s1 2.79 2.16 4.32a23.86 23.86 0 0 0 4.32 4.32s7.91.65 10.8-2.16c2.04-1.99 3.34-6.05 3.37-9.88.03-3.82-1.21-7.4-1.21-7.4s-2.96-4.72-6.48-6.49c-2.9-1.44-6.48 0-6.48 0s-3.44 2.56-4.32 4.33a4.5 4.5 0 0 0 0 4.32s2.02 4.32 4.32 4.32c.9 0 2.47.33 3.26-.63.96-1.18 1.06-3.7 1.06-3.7s3.7 1.84 4.32 4.33zm12.96 19.44c6.32-4.06 7.13-14.93 6.94-21.9.14 5.24 3.1-18.52-13.42-21.3-6.78-1.15-15.12 4.31-15.12 4.31h12.96s4.25.67 6.48 4.32c2.22 3.65 2.43 10.27 2.16 15.13-.54 9.72-6.48 17.28-6.48 17.28s-7.74 3.18-10.8 2.16c-3.4-1.13-6.48-4.32-6.48-4.32s2.36 18.06 23.76 4.32zm-25.92-45.37s3.81-5.62 8.64-8.64c3.64-2.28 8.64-2.16 8.64-2.16s.63-1.65 2.16-2.16c1.7-.57 4.32 0 4.32 0v4.32s5.16-.78 8.76-.78c2.77 0 4.2.78 4.2.78s2.16 3.71 2.16 6.48c0 2.61-2.13 4.3-2.16 4.32.06-.05 8.77-6.88 12.96 0 4.4 7.23-4.32 19.45-4.32 19.45s2.2-1.64 4.32-2.16c2.2-.56 4.32 0 4.32 0s5.57 3.2 2.16 10.8c-.81 1.8-9.99 3.89-10.8 6.48-.62 1.95 0 2.16 0 2.16s5.61-.6 8.64 0c2.26.45 2.16 2.16 2.16 2.16s-.7 6.23-4.32 8.64c-2.94 1.96-9.26 3.17-12.96 4.32-3.4 1.06-4.32 4.32-4.32 4.32h10.8s2.62 6.8-10.8 8.65c-8.71 1.2-23.76-4.33-23.76-4.33s-1.27.23-.62 1.51c.31.64 2.62 2.34 2.78 2.82.59 1.77 6.48 2.16 6.48 2.16s3.19 1.96 8.64 2.16c5.2.18 10.45.76 12.96 0a44.8 44.8 0 0 0 15.12-8.65c6.97-6.34 8.64-12.96 8.64-12.96s5.72-24.5-2.16-41.05c-11.1-23.28-23.76-25.92-23.76-25.92s-5.75-1.57-11.56-1.47c-5.09.09-9.99 1.69-14.36 3.63-10.06 4.47-12.96 15.12-12.96 15.12zm36.72 2.16zM874.6 197.6c8.31-6.47 21.83-33.68 43.2-25.93 6.48 2.36 2.16 12.97 2.16 12.97s8.24-14.37 17.28-10.8c4.47 1.76 7.5 5.18 8.64 8.64.8 2.46.87 4.96.7 6.93a19.4 19.4 0 0 1-.7 3.87l8.63-8.64s7.78-1.25 8.64 8.64c.74 8.39-8.64 21.6-8.64 21.6s1.14 2.27 4.32 0c4.23-3.02 10.8-10.8 10.8-10.8s7.98 7.67 6.48 15.12c-1.43 7.2-6.42 14.77-10.8 21.6-3.34 5.23-4.32 8.65-4.32 8.65l17.28-12.96s5.95 11.74 0 21.6c-11.34 18.8-32.4 19.45-32.4 19.45s6.84 7.67 25.92 0c1.06-.43 8.54-3.4 9.63-4.16 10.73-7.53 24.93-23.93 24.93-23.93s.52-1.44.52-2.97c0-1.7-.52-3.51-.52-3.51l-12.96-32.4s-3.18-14.98-21.6-32.41c-7.15-6.78-17.48-11.32-25.37-14.04-6.5-2.24-10.8-2.88-10.8-2.88s-20.69-2.06-35.1 6.11c-17.66 10-30.24 30.25-30.24 30.25s1.1 2.5 4.32 0z"/></defs><g><g transform="translate(-853 -161)"><use fill="#59a726" xlink:href="#a2gza"/></g></g></svg>