<svg xmlns="http://www.w3.org/2000/svg" xmlns:xlink="http://www.w3.org/1999/xlink" width="136" height="116" viewBox="0 0 136 116"><defs><path id="m7jpa" d="M1050.59 186h7.47v-9.77h8.17V186h7.5v-24.16h-7.5v8.45h-8.17v-8.45h-7.47zm28.1 0h20.4v-5.47h-12.91v-4.76h11.63v-4.93h-11.63V167h12.54v-5.16h-20.03zm24.42 0h19.14v-5.95h-11.67v-18.21h-7.47zm26.91-10.12V186h7.5v-10.12l9.4-14.04h-8.26l-4.88 8.15-4.88-8.15h-8.3zm25.24-2.47l-8.34 12.6h8.35l4.78-7.77 4.77 7.76h8.4l-8.24-12.46 7.53-11.7h-8.15l-4.17 7.43-4.28-7.43h-8.23zm-13.08-55.45c1.61.32 5.2 0 5.2 0l3.9-3.9s2.3 1.25 5.02 1.3c-2.46-.05 6.68-1.3 6.68-1.3l18.2-20.77s1.85-1.86 0-3.9c-1.79-1.94-3.9 1.3-3.9 1.3l-15.6 16.88 1.3-19.47s.3-2.68-2.6-2.6c-1.29.03-2.6 3.9-2.6 3.9l-2.6 15.58s-.69 2.33-2.6 3.9c-4.22 3.44-11.7 7.78-11.7 7.78s-.34.97 1.3 1.3zm14.3-2.6zm7.6 1.31c-.17 1.56-.5 3.56-1.1 5.19-1.3 3.49-5.11 5.72-9.1 9.09-6.93 5.83-20.68 12.28-27.3 15.58-2.84 1.42-3.95 1.47-4.29 1.47-.32 0 0 .62 0 .62s12.73-2.4 25.01-8.72c8.41-4.32 16.98-11.55 16.98-11.55s1.08.69 2.6 1.3c1.71.68 5.2 0 5.2 0s.28-3.92 0-6.5c-.36-3.2-1.3-5.19-1.3-5.19s2.52 1.3 3.9 1.3c1.2 0 1.3-1.3 1.3-1.3s1.3-.47 1.3-1.3c0-1.08-1.3-2.6-1.3-2.6s-2.08-1.3-5.2-1.3c-2.7 0-5.2 1.3-5.2 1.3s-1.33 1.1-1.5 2.61zm-46.6 31.16s-32.12-.3-46.78-1.3c-3.69-.25-10.4-2.6-10.4-2.6l-6.5-5.2s-1.72-.58-2.6 0c-1.06.71-1.3 2.6-1.3 2.6s-1.68-.61-2.6 0c-1.02.69-1.3 2.6-1.3 2.6s1.67 2.31 3.9 3.9c2.32 1.65 5.2 2.6 5.2 2.6h61.09s1.13-.93 1.41-1.5c.36-.71-.11-1.1-.11-1.1zm-67.58-36.36c-1.8 12.34 5.34 23 3.97 20.46.45.85.74 1.38.57 1.12a32.24 32.24 0 0 0 3.26 4.39s1.87.72 2.6 0c.55-.55 0-2.6 0-2.6s-4.34-3.17-6.5-10.39c-1.67-5.55-1.3-15.58-1.3-15.58s-2.3.5-2.6 2.6zm15.6 3.9c.4 1.59.17 3.07.05 3.64l-.05.25s-1.58.96-2.6 1.3c-.12.04-.24.06-.37.08-.94.15-2.46-.36-2.46-.36s-1.54-3.34-2.37-3.62c-1.09-.36-1.3 1.3-1.3 1.3s.6 1.68 1.3 2.6c1.14 1.52 2.6 2.6 2.6 2.6s4.76.39 6.5-1.3c1.22-1.2 2-3.64 2.02-5.94.02-2.3-.72-4.45-.72-4.45s-1.78-2.84-3.9-3.9c-1.75-.87-3.9 0-3.9 0s-2.07 1.54-2.6 2.6a2.7 2.7 0 0 0 0 2.6s1.22 2.6 2.6 2.6c.54 0 1.48.2 1.96-.38.58-.71.64-2.22.64-2.22s2.22 1.1 2.6 2.6zm7.8 11.68c3.8-2.44 4.28-8.97 4.17-13.16.09 3.15 1.87-11.14-8.07-12.8-4.09-.7-9.1 2.59-9.1 2.59h7.8s2.55.4 3.9 2.6c1.33 2.19 1.46 6.17 1.3 9.08-.33 5.85-3.9 10.4-3.9 10.4s-4.66 1.9-6.5 1.3a11.6 11.6 0 0 1-3.9-2.6s1.42 10.85 14.3 2.6zm-15.6-27.27s2.3-3.38 5.2-5.2c2.19-1.36 5.2-1.29 5.2-1.29s.38-1 1.3-1.3a6.1 6.1 0 0 1 2.6 0v2.6s3.1-.47 5.27-.47c1.67 0 2.52.47 2.52.47s1.3 2.23 1.3 3.9a3.62 3.62 0 0 1-1.3 2.6c.04-.04 5.28-4.14 7.8 0 2.65 4.34-2.6 11.68-2.6 11.68s1.33-.98 2.6-1.3c1.33-.33 2.6 0 2.6 0s3.36 1.92 1.3 6.5c-.48 1.07-6 2.33-6.5 3.89-.37 1.17 0 1.3 0 1.3s3.38-.37 5.2 0c1.36.27 1.3 1.3 1.3 1.3s-.42 3.74-2.6 5.19c-1.77 1.18-5.57 1.9-7.8 2.6-2.04.63-2.6 2.6-2.6 2.6h6.5s1.58 4.08-6.5 5.19c-5.24.72-14.3-2.6-14.3-2.6s-.75.13-.37.9c.2.39 1.58 1.41 1.68 1.7.35 1.06 3.9 1.3 3.9 1.3s1.91 1.18 5.2 1.3c3.12.1 6.29.45 7.8 0a26.96 26.96 0 0 0 9.1-5.2c4.19-3.82 5.2-7.8 5.2-7.8s3.43-14.72-1.3-24.66c-6.68-14-14.3-15.59-14.3-15.59s-3.46-.94-6.96-.88c-3.06.05-6.01 1.01-8.64 2.18-6.05 2.69-7.8 9.1-7.8 9.1zm22.1 1.3zM1059 92c5-3.89 13.14-20.24 26-15.58 3.9 1.41 1.3 7.79 1.3 7.79s4.95-8.63 10.4-6.5a8.78 8.78 0 0 1 5.19 5.2c.49 1.49.52 2.99.42 4.17-.12 1.38-.42 2.32-.42 2.32l5.2-5.19s4.68-.75 5.2 5.2c.44 5.04-5.2 12.98-5.2 12.98s.68 1.36 2.6 0c2.54-1.82 6.5-6.5 6.5-6.5s4.8 4.61 3.9 9.1c-.87 4.32-3.87 8.87-6.5 12.98-2.01 3.14-2.6 5.2-2.6 5.2l10.4-7.8s3.58 7.06 0 12.99c-6.83 11.3-19.5 11.69-19.5 11.69s4.12 4.6 15.6 0c.63-.26 5.13-2.04 5.79-2.5 6.45-4.53 15-14.38 15-14.38s.32-.87.32-1.79c0-1.02-.32-2.11-.32-2.11l-7.8-19.48s-1.91-9-13-19.48c-4.3-4.07-10.52-6.8-15.26-8.43a40.49 40.49 0 0 0-6.5-1.73s-12.45-1.24-21.13 3.67c-10.62 6.02-18.2 18.18-18.2 18.18s.67 1.5 2.6 0z"/></defs><g><g transform="translate(-1046 -70)"><use fill="#fff" xlink:href="#m7jpa"/></g></g></svg>